<svg xmlns="http://www.w3.org/2000/svg" viewBox="0 0 1024 1024"><path d="M544 531.2V704c0 19.2-12.8 32-32 32s-32-12.8-32-32V531.2L332.8 441.6c-12.8-6.4-19.2-25.6-6.4-44.8 6.4-12.8 25.6-19.2 44.8-6.4L512 473.6l140.8-83.2c12.8-6.4 32-6.4 44.8 12.8 6.4 12.8 6.4 32-12.8 44.8L544 531.2z m-12.8-428.8c-12.8-6.4-25.6-6.4-32 0L147.2 307.2c-12.8 6.4-19.2 19.2-19.2 25.6v352c0 12.8 6.4 19.2 19.2 25.6l352 211.2c12.8 6.4 25.6 6.4 32 0l352-211.2c12.8-6.4 19.2-12.8 19.2-25.6V332.8c0-12.8-6.4-19.2-19.2-25.6L531.2 102.4z m32-57.6L908.8 256c32 12.8 51.2 44.8 51.2 76.8v358.4c0 32-19.2 64-51.2 76.8l-345.6 211.2c-32 19.2-70.4 19.2-102.4 0L115.2 768c-32-12.8-51.2-44.8-51.2-76.8V332.8c0-32 19.2-64 51.2-76.8L460.8 44.8C492.8 25.6 531.2 25.6 563.2 44.8z" /></svg>
