<svg xmlns="http://www.w3.org/2000/svg" viewBox="0 0 1024 1024"><path d="M512.042667 85.333333c235.648 0 426.666667 191.018667 426.666666 426.666667 0 187.733333-121.216 347.136-289.664 404.181333l-9.642666 3.157334-123.904-322.133334A86.016 86.016 0 0 0 597.376 512a85.333333 85.333333 0 1 0-88.874667 85.248l-123.861333 322.090667-9.6-3.157334C206.592 859.136 85.333333 699.733333 85.333333 512c0-235.648 191.018667-426.666667 426.666667-426.666667z m0 85.333334a341.333333 341.333333 0 0 0-174.890667 634.538666l63.146667-164.224a170.666667 170.666667 0 1 1 223.530666 0c24.106667 62.890667 45.184 117.632 63.104 164.266667A341.333333 341.333333 0 0 0 512 170.666667z" /></svg>